<?xml version="1.0" encoding="UTF-8" standalone="no"?>
<svg
   height="128"
   width="128"
   version="1.1"
   id="svg20"
   sodipodi:docname="logo.svg"
   inkscape:version="1.2.2 (b0a8486541, 2022-12-01)"
   xmlns:inkscape="http://www.inkscape.org/namespaces/inkscape"
   xmlns:sodipodi="http://sodipodi.sourceforge.net/DTD/sodipodi-0.dtd"
   xmlns="http://www.w3.org/2000/svg"
   xmlns:svg="http://www.w3.org/2000/svg">
  <defs
     id="defs24" />
  <sodipodi:namedview
     id="namedview22"
     pagecolor="#505050"
     bordercolor="#ffffff"
     borderopacity="1"
     inkscape:showpageshadow="0"
     inkscape:pageopacity="0"
     inkscape:pagecheckerboard="1"
     inkscape:deskcolor="#505050"
     showgrid="false"
     inkscape:zoom="4.0117188"
     inkscape:cx="267.59104"
     inkscape:cy="70.169425"
     inkscape:window-width="3840"
     inkscape:window-height="2091"
     inkscape:window-x="0"
     inkscape:window-y="0"
     inkscape:window-maximized="1"
     inkscape:current-layer="svg20" />
  <rect
     fill="#9b59b6"
     height="104"
     rx="8"
     width="104"
     x="12"
     y="15.000002"
     id="rect2"
     style="fill:#8800aa" />
  <path
     d="m20.000014 15h87.999996c4.432 0 8 3.568 8 8v5h-103.999996v-5c0-4.432 3.568-8 8-8z"
     opacity=".8"
     id="path4" />
  <g
     fill="#fff"
     id="g12">
    <rect
       height="3"
       rx="1"
       width="3"
       x="62.5"
       y="20.000002"
       id="rect6" />
    <rect
       height="3"
       rx="1"
       width="3"
       x="67.5"
       y="20.000002"
       id="rect8" />
    <rect
       height="3"
       rx="1"
       width="3"
       x="57.5"
       y="20.000002"
       id="rect10" />
  </g>
  <path
     d="m20.000014 119h87.999996c4.432 0 8-3.568 8-8v-20h-103.999996v20c0 4.432 3.568 8 8 8z"
     opacity=".8"
     id="path14" />
  <g
     aria-label="chalet"
     id="text339"
     style="font-size:96px;font-family:Montserrat;-inkscape-font-specification:Montserrat;fill:#ffffff"
     transform="matrix(0.18384309,0,0,0.18384309,8.0053536,87.547162)">
    <path
       d="m 170.3837,124.52254 c 9.984,0 17.952,-4.32 21.888,-12 l -9.216,-5.376 c -3.072,4.896 -7.68,7.104 -12.768,7.104 -8.832,0 -15.552,-6.048 -15.552,-16.032 0,-9.888 6.72,-16.032 15.552,-16.032 5.088,0 9.696,2.208 12.768,7.104 l 9.216,-5.376 c -3.936,-7.776 -11.904,-11.904 -21.888,-11.904 -16.224,0 -27.744,10.848 -27.744,26.208 0,15.36 11.52,26.304 27.744,26.304 z"
       style="font-weight:600;-inkscape-font-specification:'Montserrat Semi-Bold'"
       id="path341" />
    <path
       d="m 231.24772,72.01054 c -7.104,0 -13.152,2.304 -17.088,6.528 v -25.92 h -12 v 71.232 h 12 v -25.92 c 0,-10.272 5.76,-15.456 14.304,-15.456 7.68,0 12.192,4.416 12.192,13.536 v 27.84 h 12 v -29.376 c 0,-15.456 -9.12,-22.464 -21.408,-22.464 z"
       style="font-weight:600;-inkscape-font-specification:'Montserrat Semi-Bold'"
       id="path343" />
    <path
       d="m 287.50367,72.01054 c -8.256,0 -16.224,2.112 -21.696,6.336 l 4.704,8.736 c 3.84,-3.168 9.792,-5.088 15.552,-5.088 8.544,0 12.768,4.128 12.768,11.136 v 0.768 h -13.248 c -15.552,0 -21.312,6.72 -21.312,15.264 0,8.928 7.392,15.36 19.104,15.36 7.68,0 13.248,-2.496 16.128,-6.912 v 6.24 h 11.328 v -30.048 c 0,-14.784 -8.544,-21.792 -23.328,-21.792 z m -1.632,43.776 c -6.144,0 -9.792,-2.784 -9.792,-7.104 0,-3.744 2.208,-6.816 10.368,-6.816 h 12.384 v 5.952 c -2.016,5.28 -7.104,7.968 -12.96,7.968 z"
       style="font-weight:600;-inkscape-font-specification:'Montserrat Semi-Bold'"
       id="path345" />
    <path
       d="m 338.1917,123.85054 v -71.232 h -12 v 71.232 z"
       style="font-weight:600;-inkscape-font-specification:'Montserrat Semi-Bold'"
       id="path347" />
    <path
       d="m 402.12766,98.50654 c 0,-16.032 -10.944,-26.496 -25.92,-26.496 -15.264,0 -26.496,10.944 -26.496,26.208 0,15.264 11.136,26.304 28.32,26.304 8.832,0 16.032,-2.88 20.64,-8.352 l -6.432,-7.392 c -3.648,3.744 -8.16,5.568 -13.92,5.568 -8.928,0 -15.168,-4.8 -16.608,-12.288 h 40.224 c 0.096,-1.152 0.192,-2.592 0.192,-3.552 z m -25.92,-16.896 c 7.872,0 13.536,5.088 14.496,12.48 h -29.088 c 1.152,-7.488 6.816,-12.48 14.592,-12.48 z"
       style="font-weight:600;-inkscape-font-specification:'Montserrat Semi-Bold'"
       id="path349" />
    <path
       d="m 441.10363,112.52254 c -1.824,1.44 -4.224,2.112 -6.72,2.112 -4.608,0 -7.104,-2.688 -7.104,-7.68 v -24.384 h 13.728 v -9.6 h -13.728 v -11.712 h -12 v 11.712 h -8.448 v 9.6 h 8.448 v 24.672 c 0,11.328 6.432,17.28 17.664,17.28 4.32,0 8.64,-1.152 11.52,-3.456 z"
       style="font-weight:600;-inkscape-font-specification:'Montserrat Semi-Bold'"
       id="path351" />
  </g>
  <path
     id="rect445"
     style="display:inline;fill:#ffffff;stroke-width:1.18541"
     d="m 52.254755,42.492824 c -3.753564,0 -6.774405,3.023164 -6.774405,6.776724 v 23.488167 c 0,3.753564 3.020841,6.776729 6.774405,6.776729 h 23.488167 c 3.753564,0 6.776728,-3.023165 6.776728,-6.776729 V 49.269548 c 0,-3.75356 -3.023164,-6.776724 -6.776728,-6.776724 z m 13.22005,5.290332 c 5.031159,0 9.046402,2.080316 11.029835,5.998806 l -4.644385,2.708842 c -1.548045,-2.467197 -3.870113,-3.579369 -6.434063,-3.579369 -4.450631,0 -7.83711,3.095119 -7.83711,8.07789 0,5.031147 3.386479,8.080213 7.83711,8.080213 2.56395,0 4.886018,-1.114495 6.434063,-3.581692 l 4.644385,2.708842 c -1.983433,3.870113 -5.998676,6.047419 -11.029835,6.047419 -8.175614,0 -13.981768,-5.514555 -13.981768,-13.254782 0,-7.740227 5.806154,-13.206169 13.981768,-13.206169 z" />
  <g
     aria-label="c"
     id="g449"
     style="font-size:96px;font-family:Montserrat;-inkscape-font-specification:Montserrat;fill:#000000"
     transform="matrix(0.42510475,0,0,0.42510475,96.716318,55.730034)" />
</svg>
